<svg id="Capa_1" enable-background="new 0 0 512.13 512.13" height="512" viewBox="0 0 512.13 512.13" width="512" xmlns="http://www.w3.org/2000/svg"><g><path d="m391.034 55.928-1.964-4.654c-13.146-31.148-43.487-51.274-77.297-51.274h-108.556c-4.143 0-7.5 3.358-7.5 7.5s3.357 7.5 7.5 7.5h108.557c27.765 0 52.681 16.528 63.478 42.108l.011.026h-19.024c-9.345-15.554-26.199-25.134-44.464-25.134h-156.283v-17h15.762c4.143 0 7.5-3.358 7.5-7.5s-3.357-7.5-7.5-7.5h-19.053c-6.456 0-11.709 5.253-11.709 11.71v23.58c0 6.457 5.253 11.71 11.709 11.71h58.993v37.701h-10.897c-9.494 0-17.218 7.724-17.218 17.219v15.868h-6.748c-6.418 0-11.64 5.221-11.64 11.639v22.955l-24.841 19.518c-12.505 9.825-19.677 24.581-19.677 40.484v263.296c0 20.099 16.352 36.45 36.45 36.45h156.21c20.099 0 36.45-16.352 36.45-36.45v-214.223c0-4.142-3.357-7.5-7.5-7.5s-7.5 3.358-7.5 7.5v214.223c0 11.828-9.622 21.45-21.45 21.45h-156.21c-11.828 0-21.45-9.623-21.45-21.45v-263.298c0-11.27 5.082-21.727 13.944-28.689l27.707-21.771c1.81-1.422 2.866-3.596 2.866-5.897v-23.238h110.075v23.238c0 2.301 1.057 4.476 2.866 5.897l27.708 21.771c8.861 6.962 13.943 17.419 13.943 28.689v17.112c0 4.142 3.357 7.5 7.5 7.5s7.5-3.358 7.5-7.5v-17.112c0-15.903-7.172-30.659-19.676-40.484l-24.842-19.519v-22.954c0-6.417-5.221-11.639-11.639-11.639h-6.748v-15.868c0-9.495-7.725-17.219-17.219-17.219h-10.897v-37.699h53.512c13.465 0 25.849 7.32 32.317 19.102 2.043 3.721 5.954 6.032 10.208 6.032h25.984c3.921 0 7.557-1.951 9.724-5.219 2.17-3.267 2.554-7.374 1.028-10.987zm-119.654 45.991v15.868h-73.301v-15.868c0-1.224.995-2.219 2.218-2.219h68.864c1.224.001 2.219.996 2.219 2.219zm-28.116-17.218h-17.069v-37.701h17.069z"/><path d="m180.015 279.385c-3.178-2.657-7.908-2.233-10.564.944-12.752 15.256-19.774 34.615-19.774 54.51 0 46.898 38.155 85.053 85.054 85.053s85.053-38.155 85.053-85.053-38.154-85.053-85.053-85.053c-13.229 0-25.927 2.971-37.742 8.832-3.71 1.84-5.227 6.34-3.386 10.051s6.338 5.228 10.052 3.386c9.725-4.823 20.18-7.269 31.076-7.269 38.627 0 70.053 31.426 70.053 70.053s-31.426 70.053-70.053 70.053c-38.628 0-70.054-31.426-70.054-70.053 0-16.384 5.783-32.327 16.284-44.89 2.655-3.178 2.232-7.908-.946-10.564z"/><path d="m245.904 287.506h-22.351c-6.665 0-12.087 5.422-12.087 12.087v11.983h-11.983c-6.665 0-12.087 5.422-12.087 12.087v22.351c0 6.665 5.422 12.087 12.087 12.087h11.983v11.983c0 6.665 5.422 12.087 12.087 12.087h22.351c6.665 0 12.087-5.422 12.087-12.087v-11.983h11.983c6.665 0 12.087-5.422 12.087-12.087v-22.351c0-6.665-5.422-12.087-12.087-12.087h-11.983v-11.983c0-6.664-5.422-12.087-12.087-12.087zm21.158 39.071v16.524h-16.57c-4.143 0-7.5 3.358-7.5 7.5v16.57h-16.524v-16.57c0-4.142-3.357-7.5-7.5-7.5h-16.57v-16.524h16.57c4.143 0 7.5-3.358 7.5-7.5v-16.57h16.524v16.57c0 4.142 3.357 7.5 7.5 7.5z"/></g></svg>