<svg id="Layer_1" enable-background="new 0 0 511.953 511.953" height="512" viewBox="0 0 511.953 511.953" width="512" xmlns="http://www.w3.org/2000/svg"><g><path d="m439.977 127.953c-14.788 0-28.553 4.483-40 12.16v-76.16c0-36.892-39.965-59.702-71.566-41.844-22.682-35.359-76.043-26.375-86.765 13.213-29.448-11.699-62.061 8.025-65.396 39.47-31.374-11.341-64.272 12.056-64.272 45.161v161.31c0 8.836 7.163 16 16 16s16-7.164 16-16v-161.31c0-4.277 1.663-8.296 4.684-11.316 10.052-10.05 27.316-2.842 27.316 11.316v104c0 8.836 7.163 16 16 16s16-7.164 16-16c0-15.023 0-128.423 0-144 0-4.277 1.663-8.296 4.684-11.316 10.052-10.05 27.316-2.842 27.316 11.316v144c0 8.836 7.163 16 16 16s16-7.164 16-16c0-19.663 0-154.448 0-176 0-4.277 1.663-8.296 4.684-11.316 10.052-10.05 27.316-2.842 27.316 11.316v176c0 8.836 7.163 16 16 16s16-7.164 16-16v-160c0-4.277 1.663-8.296 4.684-11.316 10.052-10.05 27.316-2.842 27.316 11.316v209.004c-54.417 6.803-101.687 47.819-111.782 108.365-1.626 9.754 5.895 18.634 15.802 18.634 7.679 0 14.458-5.546 15.763-13.371 8.443-50.676 50.261-82.631 96.218-82.631 8.837 0 16-7.164 16-16v-88c0-22.056 17.944-40 40-40 4.411 0 8 3.589 8 8v160c0 83.989-67.973 152-152 152-34.191 0-66.479-11.085-93.37-32.057-6.97-5.435-17.021-4.19-22.457 2.777-5.434 6.968-4.19 17.022 2.777 22.456 32.568 25.398 71.66 38.823 113.05 38.823 101.674 0 184-82.281 184-184v-160c-.002-22.056-17.947-40-40.002-40z"/><path d="m223.977 407.953c0-8.836-7.163-16-16-16-35.312 0-64-28.572-64-64 0-8.836-7.163-16-16-16s-16 7.164-16 16c0 35.302-28.567 64-64 64-8.837 0-16 7.164-16 16s7.163 16 16 16c35.29 0 64 28.71 64 64 0 8.836 7.163 16 16 16s16-7.164 16-16c0-35.3 28.566-64 64-64 8.837 0 16-7.163 16-16zm-96.035 26.934c-7.09-10.648-16.252-19.81-26.9-26.9 10.619-7.071 19.843-16.281 26.936-26.917 7.043 10.563 16.235 19.785 26.883 26.884-10.612 7.076-19.837 16.297-26.919 26.933z"/></g></svg>