<?xml version="1.0"?>
<svg xmlns="http://www.w3.org/2000/svg" viewBox="0 0 512 512" width="512" height="512"><g id="outline"><circle cx="200" cy="302.944" r="17"/><circle cx="313" cy="302.944" r="17"/><path d="M309.8,383.408a195.655,195.655,0,0,1-107.6,0,8,8,0,0,0-4.4,15.385,211.642,211.642,0,0,0,116.4,0,8,8,0,0,0-4.4-15.385Z"/><path d="M309.8,423.251a195.662,195.662,0,0,1-107.606,0,8,8,0,0,0-4.394,15.385,211.66,211.66,0,0,0,116.394,0,8,8,0,0,0-4.394-15.385Z"/><path d="M431.7,293.24A186.812,186.812,0,0,0,310.557,44.522l-35.15-10.251a122.621,122.621,0,0,0-119.99,29.955l-11.5,5.111A123.3,123.3,0,0,0,72.03,166.2,239.011,239.011,0,0,0,90.783,292.9l3.513,7.9a47.965,47.965,0,0,0,29.244,81.922,135.958,135.958,0,0,0,264.92,0A47.972,47.972,0,0,0,424.994,310ZM105.4,286.406a223,223,0,0,1-17.5-118.222,107.218,107.218,0,0,1,62.509-84.226l12.833-5.7a8.008,8.008,0,0,0,2.408-1.653,106.62,106.62,0,0,1,105.27-26.97l35.149,10.252A170.809,170.809,0,0,1,416.843,287.3l-3.789,9.472A47.782,47.782,0,0,0,392,287.623V262.944a8,8,0,0,0-8-8H363.629a234.007,234.007,0,0,1-173.683-77.352,8,8,0,0,0-12.5.764l-56,80A8,8,0,0,0,120,262.944v24.679a47.571,47.571,0,0,0-12.34,3.857Zm243.3,55.925-15.225-2.369a503.226,503.226,0,0,0-154.964,0l-14.307,2.226L136,292.819V265.466L184.9,195.6a250.07,250.07,0,0,0,178.726,75.34H376v23.625ZM120,365.932a32.005,32.005,0,0,1,0-61.976ZM136,352V325.069l16,28v58.966A119.748,119.748,0,0,1,136,352ZM319.6,453.76A120.242,120.242,0,0,1,168,433.655V357.792l12.979-2.021a487.235,487.235,0,0,1,150.042,0L344,357.792v75.863A121.017,121.017,0,0,1,319.6,453.76ZM360,412.035V354.819l16-28V352A119.748,119.748,0,0,1,360,412.035Zm32-46.1V303.956a32.005,32.005,0,0,1,0,61.976Z"/></g></svg>
