<svg id="Layer_1" enable-background="new 0 0 512 512" height="512" viewBox="0 0 512 512" width="512" xmlns="http://www.w3.org/2000/svg"><g><path d="m122.473 302.062c12.293-11.538 19.994-27.913 19.994-46.062 0-34.849-28.352-63.2-63.2-63.2s-63.2 28.352-63.2 63.2c0 18.149 7.701 34.525 19.994 46.062-21.688 14.159-36.061 38.628-36.061 66.405v128.533c0 8.284 6.716 15 15 15h128.533c8.284 0 15-6.716 15-15v-128.533c0-27.777-14.373-52.246-36.06-66.405zm-43.206-79.262c18.307 0 33.2 14.894 33.2 33.2s-14.894 33.2-33.2 33.2-33.2-14.894-33.2-33.2 14.893-33.2 33.2-33.2zm49.266 259.2h-98.533v-113.533c0-27.166 22.101-49.267 49.267-49.267s49.267 22.101 49.267 49.267v113.533z"/><path d="m357.86 154.139c5.86 5.86 15.356 5.857 21.213 0l64.267-64.267c5.858-5.857 5.858-15.355 0-21.213l-64.267-64.266c-5.857-5.857-15.355-5.857-21.213 0s-5.858 15.355 0 21.213l38.66 38.66h-281.041l38.66-38.66c5.858-5.857 5.858-15.355 0-21.213-5.857-5.857-15.355-5.857-21.213 0l-64.266 64.267c-5.858 5.857-5.858 15.355 0 21.213l64.267 64.267c5.86 5.86 15.356 5.857 21.213 0 5.858-5.857 5.858-15.355 0-21.213l-38.66-38.66h281.041l-38.66 38.66c-5.859 5.857-5.859 15.355-.001 21.212z"/><path d="m475.94 302.062c12.293-11.538 19.994-27.913 19.994-46.062 0-34.849-28.352-63.2-63.2-63.2s-63.2 28.352-63.2 63.2c0 18.149 7.701 34.525 19.994 46.062-21.687 14.159-36.06 38.628-36.06 66.405v128.533c0 8.284 6.716 15 15 15h128.532c8.284 0 15-6.716 15-15v-128.533c0-27.777-14.373-52.246-36.06-66.405zm-43.207-79.262c18.307 0 33.2 14.894 33.2 33.2s-14.894 33.2-33.2 33.2-33.2-14.894-33.2-33.2 14.894-33.2 33.2-33.2zm49.267 259.2h-98.533v-113.533c0-27.166 22.101-49.267 49.267-49.267s49.266 22.101 49.266 49.267z"/></g></svg>