<svg id="Layer_1" enable-background="new 0 0 512.001 512.001" height="512" viewBox="0 0 512.001 512.001" width="512" xmlns="http://www.w3.org/2000/svg"><g><path d="m506.027 212.032-240-193c-5.854-4.709-14.198-4.709-20.053 0l-240 193c-6.886 5.538-7.979 15.609-2.441 22.495 5.537 6.886 15.609 7.979 22.495 2.441l29.972-24.103v267.635c0 8.836 7.164 16 16 16h368c8.837 0 16-7.164 16-16v-267.635l29.974 24.104c6.885 5.539 16.958 4.443 22.495-2.441 5.537-6.887 4.445-16.958-2.442-22.496zm-320.15 252.468 6.103-54.926c3.615-32.538 31.029-57.074 63.767-57.074 32.513 0 59.906 24.349 63.717 56.638l6.536 55.362zm110.123-184c0 22.056-17.944 40-40 40s-40-17.944-40-40v-16c0-22.056 17.944-40 40-40s40 17.944 40 40zm128 184h-65.778l-6.979-59.114c-3.641-30.84-21.646-56.827-46.832-71.636 14.484-13.179 23.589-32.171 23.589-53.25v-16c0-39.701-32.299-72-72-72s-72 32.299-72 72v16c0 20.97 9.016 39.87 23.37 53.041-25.538 14.868-43.718 41.205-47.195 72.5l-6.495 58.459h-65.68v-277.368l168-135.1 168 135.1z"/></g></svg>